#!OML:ASF Y:\EmotionMaleHayes\Project 1\Capture day 1\Session 1\Male1.ASF
:FULLY-SPECIFIED
:DEGREES
986
root 46.5686 16.9904 -0.340959 515.55 90.9593 518.621
lowerback 3.60934 1.17739 -0.309219
upperback 6.7952 1.71287 2.0192
thorax 4.93519 0.873962 2.28517
lowerneck -23.4252 -0.300052 1.90035
upperneck 20.8472 -3.28893 9.36235
head 10.7916 -0.043602 2.57931
rclavicle 3.37934e-015 2.22639e-014
rhumerus -20.9134 15.3629 -89.2761
rradius 30.8399
rwrist 3.65111
rhand -10.4808 -33.6322
rfingers 7.12502
rthumb 15.5206 -63.0293
lclavicle 3.37934e-015 2.22639e-014
lhumerus -20.8234 -14.9212 95.4698
lradius 21.4964
lwrist -12.41
lhand -17.1684 -26.6846
lfingers 7.12502
lthumb 9.07286 3.10025
rfemur 9.59074 -1.23514 18.6762
rtibia 7.80552
rfoot -16.4963 -5.72201
rtoes 16.2393
lfemur 1.74571 -1.0295 -11.897
ltibia 20.8732
lfoot -18.0782 4.62187
ltoes -16.9338
987
root 46.5801 17.001 -0.338115 532.306 91.2226 535.318
lowerback 3.66256 1.24271 -0.766233
upperback 6.75757 1.79788 1.93256
thorax 4.85202 0.895611 2.44885
lowerneck -23.388 -0.367503 1.73939
upperneck 20.9637 -3.34998 9.42184
head 10.8337 -0.0730474 2.62077
rclavicle 8.84592e-015 -2.78299e-015
rhumerus -21.1662 14.9394 -89.4521
rradius 30.7335
rwrist 3.45701
rhand -10.1902 -33.7709
rfingers 7.12502
rthumb 15.8004 -63.146
lclavicle 8.84592e-015 -2.78299e-015
lhumerus -20.7828 -15.0618 95.4249
lradius 21.5681
lwrist -12.6864
lhand -16.8441 -26.4807
lfingers 7.12502
lthumb 9.38574 3.29035
rfemur 9.4808 -0.50826 18.6083
rtibia 7.83626
rfoot -16.4566 -6.18085
rtoes 15.864
lfemur 1.91881 -0.819486 -12.064
ltibia 20.564
lfoot -18.0168 4.72768
ltoes -16.9981
988
root 46.6004 16.9947 -0.364988 544.482 91.2384 547.621
lowerback 3.95739 1.15298 -0.867714
upperback 6.64302 1.67891 1.76683
thorax 4.57182 0.83766 2.32202
lowerneck -23.2068 -0.27531 1.91283
upperneck 21.2536 -3.20746 9.06361
head 10.8876 -0.0335104 2.48856
rclavicle -2.5842e-015 8.74653e-015
rhumerus -21.7423 14.3776 -89.692
rradius 30.7566
rwrist 3.43115
rhand -9.56279 -33.9203
rfingers 7.12502
rthumb 16.4046 -63.2466
lclavicle -2.5842e-015 8.74653e-015
lhumerus -21.0151 -15.2669 95.4519
lradius 21.6711
lwrist -12.741
lhand -16.6616 -26.4502
lfingers 7.12502
lthumb 9.56182 3.3128
rfemur 9.79534 -1.15488 17.9335
rtibia 7.74052
rfoot -16.2547 -5.49314
rtoes 16.1067
lfemur 2.39938 -0.823946 -12.596
ltibia 20.1446
lfoot -18.0139 4.71285
ltoes -16.7583
989
root 46.6122 16.9967 -0.378479 549.329 91.357 552.426
lowerback 3.88223 1.11319 -0.974432
upperback 6.71698 1.62973 1.66856
thorax 4.69469 0.809537 2.28381
lowerneck -23.3028 -0.233301 1.9646
upperneck 21.3103 -3.12325 8.82962
head 10.915 -0.0194953 2.40927
rclavicle 2.48481e-015 7.95139e-015
rhumerus -21.8156 13.9687 -89.805
rradius 30.6575
rwrist 3.33276
rhand -9.2323 -34.0712
rfingers 7.12502
rthumb 16.7228 -63.371
lclavicle 2.48481e-015 7.95139e-015
lhumerus -20.8001 -15.7975 95.4389
lradius 21.792
lwrist -12.3747
lhand -16.4651 -26.3478
lfingers 7.12502
lthumb 9.75148 3.40644
rfemur 9.82841 -1.19325 17.6971
rtibia 7.66814
rfoot -16.205 -5.30498
rtoes 16.7833
lfemur 2.56005 -0.714647 -12.8027
ltibia 19.9199
lfoot -18.0579 4.69668
ltoes -15.8408
990
root 46.6163 17.0036 -0.387312 523.511 91.5555 526.456
lowerback 3.86934 1.08802 -0.323056
upperback 6.71764 1.59754 1.81545
thorax 4.71551 0.821365 2.07168
lowerneck -23.4508 -0.194435 1.98115
upperneck 21.4237 -3.01887 8.51222
head 10.9704 -0.00794348 2.31005
rclavicle 9.93923e-017 3.57812e-015
rhumerus -21.8937 13.5533 -89.8641
rradius 30.4992
rwrist 3.35615
rhand -9.36072 -34.0796
rfingers 7.12502
rthumb 16.5992 -63.3897
lclavicle 9.93923e-017 3.57812e-015
lhumerus -20.6067 -16.2895 95.482
lradius 21.9076
lwrist -12.119
lhand -16.2568 -26.2261
lfingers 7.12502
lthumb 9.9524 3.51859
rfemur 9.62941 -0.916586 18.5846
rtibia 7.68081
rfoot -16.1797 -5.42146
rtoes 16.2276
lfemur 2.50995 -0.591196 -11.9649
ltibia 19.817
lfoot -18.0785 4.71185
ltoes -15.2361
991
root 46.619 17.0056 -0.408138 548.263 91.5772 551.1
lowerback 4.15326 1.0763 -0.873293
upperback 6.48496 1.5746 1.56584
thorax 4.30426 0.790541 2.10809
lowerneck -23.3378 -0.172755 2.02458
upperneck 21.7466 -2.9278 8.13339
head 11.0542 -0.00396037 2.18425
rclavicle -1.92821e-014 -2.94201e-014
rhumerus -22.5542 12.5414 -89.9833
rradius 30.709
rwrist 3.71161
rhand -9.82787 -33.9143
rfingers 7.12502
rthumb 16.1494 -63.2615
lclavicle -1.92821e-014 -2.94201e-014
lhumerus -20.8496 -16.6709 95.6082
lradius 22.0117
lwrist -12.101
lhand -16.3189 -26.3224
lfingers 7.12502
lthumb 9.89253 3.42523
rfemur 9.5493 -1.14876 17.5614
rtibia 7.65234
rfoot -16.1994 -5.00309
rtoes 15.4375
lfemur 2.4953 -0.725065 -12.971
ltibia 19.7405
lfoot -18.1773 4.86208
ltoes -14.964
992
root 46.6337 17.005 -0.41485 538.108 91.9387 541.052
lowerback 4.05271 1.11531 -0.661467
upperback 6.66376 1.63474 1.60147
thorax 4.551 0.82941 2.033
lowerneck -23.3587 -0.175261 1.9602
upperneck 21.8015 -2.87758 7.97754
head 11.0723 -0.00696366 2.14656
rclavicle 6.26172e-015 2.14687e-014
rhumerus -22.7759 11.7728 -90.0664
rradius 31.0294
rwrist 3.74298
rhand -10.341 -33.8555
rfingers 7.12502
rthumb 15.6553 -63.2421
lclavicle 6.26172e-015 2.14687e-014
lhumerus -20.6397 -16.9738 95.5529
lradius 22.2505
lwrist -11.8813
lhand -16.3462 -26.3323
lfingers 7.12502
lthumb 9.8662 3.4165
rfemur 9.72712 -0.527888 18.0519
rtibia 7.50257
rfoot -16.337 -5.25905
rtoes 15.6104
lfemur 2.88358 -0.566993 -12.5674
ltibia 19.4498
lfoot -18.2014 5.00129
ltoes -14.907
993
root 46.649 17.0043 -0.43496 544.091 91.9631 546.926
lowerback 3.79061 1.0425 -0.728005
upperback 6.75767 1.5424 1.45426
thorax 4.80393 0.781495 1.92671
lowerneck -23.3995 -0.20007 1.82907
upperneck 21.8077 -2.86576 7.95531
head 11.0817 -0.0164121 2.16219
rclavicle -1.98785e-016 1.94809e-014
rhumerus -22.8933 11.7388 -90.2912
rradius 30.9655
rwrist 3.14402
rhand -10.7084 -34.0293
rfingers 7.12502
rthumb 15.3014 -63.4432
lclavicle -1.98785e-016 1.94809e-014
lhumerus -20.4429 -16.9936 95.4347
lradius 22.53
lwrist -11.7899
lhand -16.2414 -26.3444
lfingers 7.12502
lthumb 9.96723 3.39962
rfemur 9.71261 -1.11362 17.5014
rtibia 7.50013
rfoot -16.1393 -4.7226
rtoes 16.2447
lfemur 2.9186 -0.611199 -12.9987
ltibia 19.2372
lfoot -18.0712 5.19821
ltoes -15.9084
994
root 46.6621 17.0041 -0.439837 531.88 92.2717 534.751
lowerback 3.84037 1.06616 -0.33585
upperback 6.83138 1.57807 1.52921
thorax 4.85966 0.817687 1.78552
lowerneck -23.6492 -0.211869 1.81661
upperneck 22.0505 -2.84817 7.70402
head 11.2119 -0.0309188 2.08167
rclavicle -2.18663e-015 -1.43125e-014
rhumerus -22.9814 11.8553 -90.5361
rradius 30.6217
rwrist 2.56481
rhand -10.9004 -34.0685
rfingers 7.12502
rthumb 15.1164 -63.4965
lclavicle -2.18663e-015 -1.43125e-014
lhumerus -20.1926 -17.9688 95.5002
lradius 22.4648
lwrist -10.9295
lhand -16.4419 -26.5299
lfingers 7.12502
lthumb 9.77381 3.22334
rfemur 9.75075 -0.760202 18.1346
rtibia 7.53656
rfoot -16.1708 -4.92273
rtoes 16.4381
lfemur 3.10978 -0.456901 -12.3939
ltibia 19.2167
lfoot -17.9994 5.41051
ltoes -17.3577
